<?xml version="1.0" encoding="utf-8"?>
<!-- Generator: Adobe Illustrator 25.4.1, SVG Export Plug-In . SVG Version: 6.00 Build 0)  -->
<svg version="1.1" id="Layer_1" xmlns="http://www.w3.org/2000/svg" xmlns:xlink="http://www.w3.org/1999/xlink" x="0px" y="0px"
	 viewBox="0 0 32 32" style="enable-background:new 0 0 32 32;" xml:space="preserve">
<style type="text/css">
	.st0{fill:#223555;}
	.st1{fill:#EF374B;}
	.st2{fill:#FFFFFF;}
</style>
<g>
	<g>
		<path class="st0" d="M17.39,17.24l-3.45-3.55c-0.03,0.03-0.06,0.06-0.09,0.09c-0.12-0.17-0.19-0.33-0.31-0.46
			c-1.29-1.33-2.58-2.66-3.88-3.97c-0.16-0.16-0.44-0.29-0.66-0.3C6.81,9.03,4.63,9.04,2.45,9.04c-0.11,0-0.21,0.03-0.37,0.06
			c2.73,2.87,5.42,5.68,8.12,8.51c-0.01,0.01-0.02,0.03-0.04,0.04l3.3,3.42c0.46-0.45,0.93-0.9,1.39-1.36
			c0.62-0.61,1.25-1.21,1.88-1.82c0.03,0.02,0.05,0.05,0.08,0.07c-0.46,0.6-0.93,1.2-1.39,1.8c0.45-0.58,0.9-1.16,1.35-1.74
			l0.05-0.06l0.58-0.69c0,0-0.01-0.01-0.01-0.01C17.38,17.25,17.39,17.24,17.39,17.24z"/>
		<path class="st0" d="M2.46,25.72c2,0,3.87-0.01,5.74,0.01c0.36,0,0.61-0.11,0.86-0.36c1.46-1.44,2.93-2.87,4.4-4.3l-3.3-3.42
			C7.59,20.34,5.06,22.99,2.46,25.72z"/>
		<path class="st0" d="M16.77,18.02c-0.45,0.58-0.9,1.16-1.35,1.74c-0.47,0.6-0.94,1.21-1.41,1.83c1.18,1.24,2.35,2.46,3.51,3.68
			L19,26.8c0.01,0.01,0.02,0.02,0.04,0.03c0.13,0.09,0.34,0.14,0.5,0.14c1.46,0.01,2.93,0.01,4.39,0.01c0.84,0,1.68,0,2.52,0
			c0.08,0,0.17-0.01,0.29-0.02c0.03,0,0.06-0.01,0.09-0.01c-1.75-1.79-3.47-3.56-5.2-5.33c-1.41-1.45-2.82-2.89-4.23-4.34
			l-0.58,0.69L16.77,18.02z"/>
	</g>
	<path class="st1" d="M29.92,5.03c-2.52,0-4.88,0.01-7.25-0.01c-0.35,0-0.57,0.11-0.8,0.35c-1.11,1.19-2.24,2.36-3.37,3.54
		c-1.49,1.56-2.98,3.12-4.56,4.78l3.45,3.55C21.56,13.18,25.69,9.15,29.92,5.03z"/>
	<path class="st1" d="M14,21.59c0.48-0.62,0.95-1.22,1.41-1.83C14.95,20.36,14.48,20.97,14,21.59C14,21.59,14,21.59,14,21.59z"/>
	<g>
		<circle class="st2" cx="13.68" cy="17.47" r="3.87"/>
		<circle class="st0" cx="13.68" cy="17.47" r="3.17"/>
		<polygon class="st2" points="11.42,15.82 13.66,14.93 16.06,15.81 13.69,16.76 		"/>
		<polygon class="st2" points="11.36,15.92 13.47,17.31 13.47,20.05 11.36,18.71 		"/>
		<polygon class="st2" points="13.88,17.3 16.06,15.92 16.06,18.74 13.88,20.05 		"/>
	</g>
</g>
<g>
	<path class="st0" d="M-1741.69-625.05l-14.59-15c-0.12,0.13-0.24,0.26-0.37,0.39c-0.49-0.73-0.82-1.41-1.32-1.93
		c-5.44-5.62-10.88-11.24-16.4-16.78c-0.68-0.68-1.84-1.24-2.78-1.25c-9.21-0.09-18.42-0.05-27.64-0.04c-0.44,0-0.89,0.13-1.55,0.23
		c11.54,12.1,22.88,23.98,34.27,35.93c-0.05,0.05-0.1,0.11-0.16,0.16l13.94,14.44c1.96-1.91,3.92-3.82,5.88-5.73
		c2.63-2.57,5.28-5.12,7.92-7.67c0.11,0.1,0.23,0.2,0.34,0.3c-1.95,2.52-3.91,5.05-5.88,7.6c1.92-2.47,3.82-4.91,5.69-7.35
		l0.21-0.25l2.43-2.93c-0.02-0.02-0.04-0.04-0.06-0.06C-1741.72-625.02-1741.71-625.04-1741.69-625.05z"/>
	<path class="st0" d="M-1804.74-589.22c8.45,0,16.34-0.04,24.24,0.03c1.52,0.01,2.56-0.47,3.63-1.53
		c6.17-6.08,12.38-12.13,18.59-18.18l-13.94-14.44C-1783.06-611.97-1793.76-600.75-1804.74-589.22z"/>
	<path class="st0" d="M-1744.32-621.75c-1.88,2.44-3.78,4.88-5.69,7.35c-1.97,2.54-3.95,5.1-5.97,7.71
		c4.99,5.23,9.9,10.4,14.82,15.53l6.27,6.5c0.05,0.05,0.1,0.1,0.16,0.14c0.57,0.38,1.42,0.58,2.12,0.58
		c6.18,0.03,12.36,0.03,18.53,0.04c3.54,0,7.09-0.01,10.63-0.01c0.35,0,0.71-0.05,1.2-0.1c0.12-0.02,0.25-0.03,0.39-0.05
		c-7.38-7.57-14.67-15.05-21.95-22.52c-5.96-6.12-11.91-12.22-17.87-18.34l-2.43,2.93L-1744.32-621.75z"/>
</g>
<g>
	<text transform="matrix(1 0 0 1 -1692.2708 -626.5212)" class="st0" style="font-family:'SegoeUIHistoric'; font-size:36.6335px;">Custom</text>
</g>
<g>
	<text transform="matrix(1 0 0 1 -1692.2708 -581.9744)" class="st0" style="font-family:'SegoeUI-Bold'; font-size:53.7291px;">Packaging</text>
</g>
<path class="st1" d="M-1688.78-676.63c-10.62,0-20.62,0.03-30.62-0.04c-1.47-0.01-2.43,0.47-3.39,1.5
	c-4.7,5.01-9.47,9.96-14.21,14.93c-6.29,6.59-12.58,13.18-19.27,20.18l14.59,15C-1724.09-642.21-1706.62-659.23-1688.78-676.63z"/>
<path class="st1" d="M-1755.99-606.69c2.02-2.61,4-5.17,5.97-7.71C-1751.99-611.85-1753.99-609.29-1755.99-606.69
	C-1755.99-606.69-1755.99-606.69-1755.99-606.69z"/>
<g>
	<circle class="st2" cx="-1757.37" cy="-624.06" r="16.33"/>
	<circle class="st0" cx="-1757.37" cy="-624.06" r="13.37"/>
	<polygon class="st2" points="-1766.9,-631.06 -1757.42,-634.82 -1747.32,-631.08 -1757.31,-627.06 	"/>
	<polygon class="st2" points="-1767.14,-630.63 -1758.24,-624.75 -1758.24,-613.2 -1767.14,-618.83 	"/>
	<polygon class="st2" points="-1756.49,-624.79 -1747.32,-630.63 -1747.32,-618.72 -1756.49,-613.2 	"/>
</g>
</svg>
